<svg version="1.2" xmlns="http://www.w3.org/2000/svg" viewBox="0 0 500 300" width="500" height="300">
	<title>New Project</title>
	<style>
		.s0 { fill: #ffffff;stroke: #000000;stroke-width: 10 } 
	</style>
	<path id="?" class="s0" aria-label="?"  d="m266.4 200.8h-33.3q-1.6 0-1.6-1.2v-16.3q0-12 5.6-24 5.6-12.1 15.2-21.8 4.6-4.5 7.8-7.9 3.4-3.5 5.4-6 4.3-5 5.4-9.1 1.2-4.3 1.2-10 0-10.5-6.3-17.5-6.3-7.1-16-7.1-9.5 0-15.9 7.1-6.5 7-6.5 17.5v21.9q0 1.1-1.1 1.1h-34q-1.2 0-1.2-1.1v-21.9q0-16.8 8.1-30.6 7.9-13.7 21.2-21.8 13.3-8.2 29.4-8.2 16.3 0 29.6 8 13.4 8.1 21.1 22 7.9 13.8 7.9 30.6 0 9.6-2 17.5-2.2 7.6-7.9 15.9-5.7 8.2-16.9 20.5-7.4 7.7-10.7 13.7-3 6-3 13.1v14.4q0 1.2-1.5 1.2zm0 55.2h-33.3q-1.6 0-1.6-1.5v-33.4q0-1.1 1.6-1.1h33.3q1.5 0 1.5 1.1v33.4q0 1.5-1.5 1.5z"/>
</svg>